{
    "asset" : {
        "generator" : "Khronos glTF Blender I/O v3.4.50",
        "version" : "2.0"
    },
    "scene" : 0,
    "scenes" : [
        {
            "name" : "Scene",
            "nodes" : [
                0
            ]
        }
    ],
    "nodes" : [
        {
            "mesh" : 0,
            "name" : "roof"
        }
    ],
    "materials" : [
        {
            "name" : "Air Space 1772016386",
            "pbrMetallicRoughness" : {
                "baseColorFactor" : [
                    0.956527054309845,
                    0.9634851813316345,
                    0.9843747615814209,
                    1
                ],
                "metallicFactor" : 0
            }
        }
    ],
    "meshes" : [
        {
            "name" : "Mesh_11",
            "primitives" : [
                {
                    "attributes" : {
                        "POSITION" : 0,
                        "TEXCOORD_0" : 1,
                        "NORMAL" : 2
                    },
                    "indices" : 3,
                    "material" : 0
                }
            ]
        }
    ],
    "accessors" : [
        {
            "bufferView" : 0,
            "componentType" : 5126,
            "count" : 1971,
            "max" : [
                16.71500015258789,
                5.5064592361450195,
                7.465000152587891
            ],
            "min" : [
                -16.71500015258789,
                2.7036290168762207,
                -7.465000152587891
            ],
            "type" : "VEC3"
        },
        {
            "bufferView" : 1,
            "componentType" : 5126,
            "count" : 1971,
            "type" : "VEC2"
        },
        {
            "bufferView" : 2,
            "componentType" : 5126,
            "count" : 1971,
            "type" : "VEC3"
        },
        {
            "bufferView" : 3,
            "componentType" : 5123,
            "count" : 1971,
            "type" : "SCALAR"
        }
    ],
    "bufferViews" : [
        {
            "buffer" : 0,
            "byteLength" : 23652,
            "byteOffset" : 0,
            "target" : 34962
        },
        {
            "buffer" : 0,
            "byteLength" : 15768,
            "byteOffset" : 23652,
            "target" : 34962
        },
        {
            "buffer" : 0,
            "byteLength" : 23652,
            "byteOffset" : 39420,
            "target" : 34962
        },
        {
            "buffer" : 0,
            "byteLength" : 3942,
            "byteOffset" : 63072,
            "target" : 34963
        }
    ],
    "buffers" : [
        {
            "byteLength" : 67016,
            "uri" : "data:application/octet-stream;base64,"
        }
    ]
}
